<svg xmlns="http://www.w3.org/2000/svg" width="512" height="512" viewBox="0 0 512 512" role="img" aria-labelledby="title desc">
  <title id="title">POM Tesla Report</title>
  <desc id="desc">AI-powered Tesla assistant logo</desc>
  <defs>
    <linearGradient id="bg" x1="0" y1="0" x2="1" y2="1">
      <stop offset="0" stop-color="#0f172a"/>
      <stop offset="1" stop-color="#111827"/>
    </linearGradient>
    <linearGradient id="accent" x1="0" y1="0" x2="1" y2="1">
      <stop offset="0" stop-color="#38bdf8"/>
      <stop offset="1" stop-color="#22c55e"/>
    </linearGradient>
  </defs>
  <rect width="512" height="512" rx="96" fill="url(#bg)"/>
  <path d="M106 296c16-58 57-104 111-123 24-9 54-9 78 0 54 19 95 65 111 123" fill="none" stroke="#e5e7eb" stroke-width="28" stroke-linecap="round"/>
  <path d="M137 297h238c25 0 45 20 45 45v23c0 14-11 25-25 25h-24c-9 0-18-5-22-13l-7-13H170l-7 13c-4 8-13 13-22 13h-24c-14 0-25-11-25-25v-23c0-25 20-45 45-45Z" fill="#1f2937" stroke="#e5e7eb" stroke-width="16"/>
  <circle cx="164" cy="347" r="22" fill="url(#accent)"/>
  <circle cx="348" cy="347" r="22" fill="url(#accent)"/>
  <path d="M205 282h102" stroke="#38bdf8" stroke-width="18" stroke-linecap="round"/>
  <circle cx="256" cy="173" r="72" fill="#0b1220" stroke="url(#accent)" stroke-width="16"/>
  <circle cx="229" cy="164" r="10" fill="#e5e7eb"/>
  <circle cx="283" cy="164" r="10" fill="#e5e7eb"/>
  <path d="M232 198c14 14 34 14 48 0" fill="none" stroke="#e5e7eb" stroke-width="10" stroke-linecap="round"/>
  <path d="M256 78v23M184 173h-23M351 173h-23" stroke="#22c55e" stroke-width="14" stroke-linecap="round"/>
  <text x="256" y="448" text-anchor="middle" font-family="Arial, Helvetica, sans-serif" font-size="54" font-weight="800" fill="#e5e7eb">POM AI</text>
</svg>
